HIERARCHY
ROOT root
{
	OFFSET 0.000000 0.000000 0.000000
	CHANNELS 6 Xposition Yposition Zposition Zrotation Yrotation Xrotation
	JOINT lhip
	{
		OFFSET 0.058581 -0.082280 -0.017664
		CHANNELS 3 Zrotation Yrotation Xrotation
		JOINT lknee
		{
			OFFSET 0.043451 -0.386469 0.008037
			CHANNELS 3 Zrotation Yrotation Xrotation
			JOINT lankle
			{
				OFFSET -0.014790 -0.426874 -0.037428
				CHANNELS 3 Zrotation Yrotation Xrotation
				JOINT ltoe
				{
					OFFSET 0.041054 -0.060286 0.122042
					CHANNELS 3 Zrotation Yrotation Xrotation
					End Site
					{
						OFFSET 0.000000 0.000000 0.000000
					}
				}
			}
		}
	}
	JOINT rhip
	{
		OFFSET -0.060310 -0.090513 -0.013543
		CHANNELS 3 Zrotation Yrotation Xrotation
		JOINT rknee
		{
			OFFSET -0.043257 -0.383688 -0.004843
			CHANNELS 3 Zrotation Yrotation Xrotation
			JOINT rankle
			{
				OFFSET 0.019056 -0.420046 -0.034562
				CHANNELS 3 Zrotation Yrotation Xrotation
				JOINT rtoe
				{
					OFFSET -0.034840 -0.062106 0.130323
					CHANNELS 3 Zrotation Yrotation Xrotation
					End Site
					{
						OFFSET 0.000000 0.000000 0.000000
					}
				}
			}
		}
	}
	JOINT lowerback
	{
		OFFSET 0.004439 0.124404 -0.038385
		CHANNELS 3 Zrotation Yrotation Xrotation
		JOINT upperback
		{
			OFFSET 0.004488 0.137956 0.026820
			CHANNELS 3 Zrotation Yrotation Xrotation
			JOINT chest
			{
				OFFSET -0.002265 0.056032 0.002855
				CHANNELS 3 Zrotation Yrotation Xrotation
				JOINT lowerneck
				{
					OFFSET -0.013390 0.211636 -0.033468
					CHANNELS 3 Zrotation Yrotation Xrotation
					JOINT upperneck
					{
						OFFSET 0.010113 0.088937 0.050410
						CHANNELS 3 Zrotation Yrotation Xrotation
						End Site
						{
							OFFSET 0.000000 0.000000 0.000000
						}
					}
				}
				JOINT lclavicle
				{
					OFFSET 0.071702 0.114000 -0.018898
					CHANNELS 3 Zrotation Yrotation Xrotation
					JOINT lshoulder
					{
						OFFSET 0.122921 0.045205 -0.019046
						CHANNELS 3 Zrotation Yrotation Xrotation
						JOINT lelbow
						{
							OFFSET 0.255332 -0.015649 -0.022946
							CHANNELS 3 Zrotation Yrotation Xrotation
							JOINT lwrist
							{
								OFFSET 0.265709 0.012698 -0.007375
								CHANNELS 3 Zrotation Yrotation Xrotation
								End Site
								{
									OFFSET 0.000000 0.000000 0.000000
								}
							}
						}
					}
				}
				JOINT rclavicle
				{
					OFFSET -0.082954 0.112472 -0.023707
					CHANNELS 3 Zrotation Yrotation Xrotation
					JOINT rshoulder
					{
						OFFSET -0.113228 0.046853 -0.008472
						CHANNELS 3 Zrotation Yrotation Xrotation
						JOINT relbow
						{
							OFFSET -0.260127 -0.014369 -0.031269
							CHANNELS 3 Zrotation Yrotation Xrotation
							JOINT rwrist
							{
								OFFSET -0.269108 0.006794 -0.006027
								CHANNELS 3 Zrotation Yrotation Xrotation
								End Site
								{
									OFFSET 0.000000 0.000000 0.000000
								}
							}
						}
					}
				}
			}
		}
	}
}
MOTION
Frames: 6
Frame Time: 0.033333
0.469852 0.174838 0.993188 89.087595 2.839690 95.259360 5.006873 3.707651 -1.528945 3.191265 -3.874377 -6.793807 -1.127563 10.656241 -4.396180 0.000000 -0.000000 0.000000 -1.560895 -1.968818 -5.054344 -1.182942 4.286016 0.324442 5.207166 -5.638920 -4.076377 0.000000 -0.000000 0.000000 -1.047944 0.264730 -0.141549 3.722714 -3.738292 0.948880 -0.167752 1.091550 -6.643704 0.390611 -15.725341 8.444269 7.209715 -15.172904 -5.008996 -21.001278 7.163083 -6.175026 -62.222438 -4.413905 26.594179 3.682859 -16.604228 15.289911 -9.546738 -7.434223 14.794287 22.595061 -0.561142 -3.195362 55.973620 3.538274 18.640328 -2.128806 5.843511 6.714278 7.125642 2.087573 6.734110 
0.469784 0.174757 0.992993 89.049433 2.850376 95.258461 5.021252 3.713406 -1.502545 3.202946 -3.884181 -6.845429 -1.181572 10.684761 -4.356852 0.000000 -0.000000 0.000000 -1.552848 -1.927292 -5.055469 -1.193858 4.240384 0.300478 5.366683 -5.629445 -4.067181 0.000000 -0.000000 0.000000 -1.096307 0.279266 0.003832 3.664491 -3.772419 0.676284 -0.156574 1.183370 -6.560382 0.372057 -15.330523 9.025099 8.142166 -15.367410 -5.783635 -20.509885 6.988578 -6.047756 -62.728966 -4.298276 26.493249 3.865356 -16.540780 15.360096 -9.824527 -7.453880 14.653964 22.541601 -0.387555 -3.070440 56.125299 3.316163 18.350092 -2.239660 5.828456 6.740930 7.240443 2.142451 6.680846 
0.469692 0.174703 0.992945 89.009667 2.845121 95.281146 5.025191 3.707417 -1.528357 3.186195 -3.853025 -6.834838 -1.161032 10.692359 -4.383405 0.000000 -0.000000 0.000000 -1.565475 -1.927352 -5.074449 -1.180260 4.269282 0.262914 5.381677 -5.620117 -4.044792 0.000000 -0.000000 0.000000 -1.082833 0.309763 0.002952 3.633564 -3.746296 0.619348 -0.176847 1.179809 -6.519588 0.394513 -15.291762 9.005679 8.197998 -15.340649 -5.778208 -20.494910 6.975150 -6.008611 -62.790244 -4.330607 26.485014 3.948250 -16.537041 15.443897 -9.950783 -7.536066 14.639985 22.495895 -0.402012 -3.000406 56.221544 3.278343 18.327302 -2.316941 5.766139 6.744854 7.297487 2.121434 6.491329 
0.469590 0.174643 0.992901 88.978085 2.850145 95.295330 5.021406 3.683131 -1.507236 3.209622 -3.832663 -6.902654 -1.142772 10.742719 -4.353036 0.000000 -0.000000 0.000000 -1.554052 -1.922966 -5.103704 -1.187306 4.284467 0.263228 5.397526 -5.609902 -4.020172 0.000000 -0.000000 0.000000 -1.093831 0.319865 -0.016327 3.639466 -3.721215 0.599522 -0.158868 1.166124 -6.483651 0.405553 -15.279990 9.007268 8.198401 -15.323947 -5.783150 -20.474875 7.048973 -6.024658 -62.887451 -4.346336 26.460797 3.954114 -16.584748 15.419244 -9.953139 -7.541663 14.547425 22.475653 -0.430906 -2.949143 56.274264 3.255424 18.332549 -2.423752 5.601618 6.686528 7.308406 2.130263 6.460473 
0.469559 0.174605 0.992903 88.973680 2.848499 95.302015 5.023571 3.684612 -1.512862 3.210989 -3.839060 -6.905591 -1.155337 10.732894 -4.322812 0.000000 -0.000000 0.000000 -1.554822 -1.930431 -5.114934 -1.184626 4.291520 0.262320 5.398479 -5.601313 -4.014407 0.000000 -0.000000 0.000000 -1.103472 0.323617 -0.001229 3.640992 -3.713079 0.575918 -0.156688 1.174901 -6.487248 0.398058 -15.292187 9.009519 8.201766 -15.318103 -5.785698 -20.467004 7.048340 -6.027532 -62.906093 -4.334691 26.476896 3.956698 -16.596661 15.402218 -9.900841 -7.541014 14.522511 22.461732 -0.455608 -2.962536 56.288308 3.220326 18.320699 -2.436850 5.557686 6.651662 7.308713 2.146939 6.452188 
0.469502 0.174521 0.992871 88.957576 2.840913 95.304109 5.021881 3.705960 -1.540717 3.204052 -3.837983 -6.856716 -1.171046 10.720930 -4.338493 0.000000 -0.000000 0.000000 -1.563798 -1.936640 -5.126534 -1.175037 4.298787 0.258812 5.392282 -5.598614 -4.015534 0.000000 -0.000000 0.000000 -1.122543 0.313585 0.025905 3.640850 -3.697235 0.535640 -0.154689 1.194271 -6.471736 0.391236 -15.309705 8.984460 8.195585 -15.311280 -5.777256 -20.440966 7.056831 -6.030080 -62.923134 -4.331756 26.513923 3.896050 -16.636931 15.440409 -9.740396 -7.541460 14.483472 22.421046 -0.541687 -2.998467 56.300190 3.171521 18.287564 -2.428711 5.518943 6.637814 7.268079 2.129084 6.427197 
